<?xml version="1.0" encoding="UTF-8"?><svg id="a" xmlns="http://www.w3.org/2000/svg" xmlns:xlink="http://www.w3.org/1999/xlink" viewBox="0 0 1184.17 372.28"><defs><style>.g{fill:none;}.g,.h,.i,.j,.k{stroke-width:0px;}.l{clip-path:url(#e);}.m{clip-path:url(#f);}.n{clip-path:url(#d);}.o{clip-path:url(#b);}.p{clip-path:url(#c);}.h{fill:#1d1d1b;}.i{fill:#e6007e;}.j{fill:#feeb23;}.k{fill:#feeb19;}</style><clipPath id="b"><rect class="g" width="1184.17" height="372.28"/></clipPath><clipPath id="c"><rect class="g" width="1184.17" height="372.28"/></clipPath><clipPath id="d"><rect class="g" width="1184.17" height="372.28"/></clipPath><clipPath id="e"><rect class="g" width="1184.17" height="372.28"/></clipPath><clipPath id="f"><rect class="g" width="1184.17" height="372.28"/></clipPath></defs><polygon class="i" points="5.54 292.5 105.82 291.19 158.97 303.36 182.05 83.78 0 64.64 5.54 292.5"/><g class="o"><path class="j" d="M100.63,121.69l-18.44,36.27c-.23.61-.52.64-.87.09l-25.43-31.66c-.57-.72-1.29-1.04-2.16-.95l-17.05,1.79c-.49.05-.88.27-1.19.64-.31.38-.43.81-.38,1.29l10.35,98.52c.05.49.26.88.64,1.18.38.31.81.43,1.29.38l17.05-1.79c.48-.05.88-.26,1.18-.64.3-.38.43-.81.38-1.29l-6.74-64.12c-.04-.39.03-.61.22-.69.19-.07.4.03.62.3l17.99,22.57c.57.73,1.29,1.04,2.16.95l8.6-.9c.88-.09,1.51-.55,1.92-1.38l12.9-25.82c.16-.31.34-.48.54-.5.19-.02.31.16.35.55l6.76,64.27c.05.49.26.88.64,1.18.38.31.81.43,1.29.38l17.05-1.79c.48-.05.88-.26,1.19-.64.3-.38.43-.81.38-1.29l-10.35-98.52c-.05-.48-.27-.88-.64-1.19-.38-.3-.81-.43-1.29-.38l-17.05,1.79c-.87.09-1.51.55-1.92,1.38"/></g><polyline class="i" points="364.23 96.29 208.64 82.46 154.06 262.21 260.07 277.98 337.05 278.65"/><g class="p"><path class="j" d="M244.99,222.2c2.5-1.74,4.97-3.8,7.59-6.28l49.66-49.45,7.71,2.81,3.71-10.19-28.64-10.42-3.56,9.78,9.5,3.46-28.53,29.54c.14.05-2.59-40.86-2.59-40.86l9.09,3.31,3.56-9.78-28.92-10.52-3.71,10.19,7.71,2.81,5.15,53.96-7,6.81c-2.38,2.25-4.42,4-6.18,5.39-3.36,2.36-5.83,3.18-8.01,3.17.08-2.78-1.22-6.06-4.67-7.31-3.58-1.3-7.37.12-8.93,4.39-1.7,4.68,1.63,10.11,8.23,12.51,6.06,2.21,12.31.89,18.82-3.29"/></g><polygon class="i" points="413.43 147.39 473.46 361.01 625.42 348.24 610.02 127.98 519.42 141.83 413.43 147.39"/><g class="n"><path class="j" d="M585.18,170.24l-33.1,9.49,1.41,4.93c11.73-2.14,13.12.05,13.58,9.06.37,8.74.89,32.37.37,51.27l-.28.08c-13.64-18.34-27.85-37.59-41.88-56.74l-6.76,1.94c-.4,23.59-1.35,46.88-2.23,68.78l-.28.08c-9.41-14.22-18.89-29.19-28.26-44.34-4.03-6.62-4.46-8.63,5.88-12.97l-1.41-4.93-41.69,11.96,1.41,4.93c8.67-1.11,11.63.17,18.17,10.19,15.04,22.67,28.87,44.32,43.74,67.49l7.47-2.14c.8-22.18,1.97-45.23,3.19-68.6l.28-.08c14.03,19.15,27.27,37.15,40.89,55.96l7.33-2.1c.52-42.84,1.81-69.73,2.46-79.67.41-12.92,2.28-15.44,11.13-19.66l-1.41-4.93Z"/></g><polygon class="i" points="639.96 106.79 616.85 311.99 799.65 321.57 811.21 101.08 778.45 102.17 639.96 106.79"/><g class="l"><path class="j" d="M715.61,220.95c-2.55,1.67-4.18,2.2-6.23,2.13-3.37-.12-8.68-3.38-8.39-11.58.17-4.98,2.61-7.53,7.23-9.72,2.98-1.51,5.53-3.03,8.21-4.26l-.82,23.43ZM744.73,226.96l-1.3-4.74c-1.63.53-3.26,1.06-5.02,1-2.34-.08-4.62-2.07-4.38-8.8l.84-24.16c.28-8.2-.81-14.55-6.94-19.6-3.85-3.07-8.2-4.54-14.21-4.75-8.4,1.17-18.98,5.93-24.67,9.55-3.46,2.37-5.28,4.22-5.37,6.85-.13,3.81,5.02,7.51,8.82,7.64,3.08.11,5.17-.99,6.33-4.77,1.33-4.5,2.77-7.97,4.6-9.96,1.38-1.71,3.02-2.53,4.93-2.47,5.42.19,8.75,5.44,8.43,14.66l-.16,4.39c-3.47,2.81-14.87,5.93-23.62,8.85-7.71,2.52-11.36,6.05-11.62,13.67-.32,9.08,6.67,19,19.12,19.43,2.78.1,9.84-4.49,15.53-7.96.67,1.78,1.63,3.72,3.62,5.55,1.84,1.82,4.87,3.25,8.83,3.39l16.25-7.79Z"/></g><polygon class="i" points="790.51 164.79 827.88 361.01 988.52 372.28 973.12 152.02 790.51 164.79"/><polygon class="j" points="905.36 199.4 890.66 249.95 860.78 206.46 840.37 209.69 884.63 271.82 889.95 305.4 908.19 302.51 902.91 269.22 925.62 196.19 905.36 199.4"/><polygon class="k" points="814.49 0 763.05 105.66 1173.24 222.81 1184.17 139.34 814.49 0"/><g class="m"><path class="h" d="M1125.56,179.2c-.34.17-.67.3-1.06.17-.69-.23-1.06-.97-.83-1.66.22-.64,1.02-1.04,1.66-.83.34.11.3,1.1.23,2.32M1129.87,180.17c-.63.03-1.12.63-1.76.41-.6-.2-.69-.8-1.03-1.2l.62-1.85s1.32.49,2.42.9c-.06.6-.24,1.73-.24,1.73M1130.25,177.33c-.87-.1-1.73-.25-2.37-.32l.6-1.66c.23-.69.98-1.06,1.66-.83.34.11.31,1.35.11,2.81M1144.07,184.53c-.23.69-.98,1.06-1.66.83-.86-.29-.67-1.28-1.49-1.55-.77-.26-1.3.61-2.08.35-.77-.26-.71-1.29-1.49-1.55-.77-.26-1.35.6-2.12.34-.77-.26-.67-1.27-1.44-1.53-.82-.27-1.35.6-2.12.34-.6-.2-.67-.85-1.06-1.26l.6-1.66,4.85,1.62c.77.26.7,1.33,1.47,1.59.77.26,1.36-.64,2.13-.38.73.24.66,1.32,1.43,1.58.82.27,1.36-.64,2.13-.38.69.23,1.04,1.02.83,1.66M1137.14,169.86l-2.61,7.52c-.11.34-1.39.3-2.86.14l1.56-4.54c.26-.77,1.29-.71,1.55-1.49.26-.77-.6-1.35-.34-2.12.24-.73,1.27-.67,1.53-1.44.27-.82-.6-1.35-.34-2.12.23-.69.98-1.06,1.66-.83.51.17.17,2.78-.15,4.87M1143.25,163.31l-1.52,4.55c-.3.76-1.32.66-1.59,1.47-.26.77.61,1.3.36,2.08-.26.77-1.29.71-1.55,1.49-.26.77.6,1.35.34,2.12-.23.69-.97,1.06-1.66.83-.52-.17-.17-2.78.16-4.91l2.6-7.48c.13-.38,1.39-.3,2.86-.14M1148.91,182.19c-.27.67-1.02,1.04-1.7.81-.64-.21-1.06-.97-.83-1.66.23-.69,1.02-1.04,1.66-.83.69.23,1.1.99.87,1.68M1144.38,160.35l-.6,1.66-4.89-1.64c-.67-.27-1.04-1.02-.81-1.7.21-.64.97-1.06,1.66-.83.77.26.66,1.32,1.47,1.59.77.26,1.36-.64,2.09-.4.6.2.7.9,1.09,1.32M1147.08,163.83l-.56,1.67c-.23.69-.97,1.06-1.66.83-.39-.13-.3-1.39-.16-2.82.87.1,1.73.25,2.38.32M1147.87,161.47l-.62,1.85-2.42-.91c.11-.63.17-1.23.26-1.77.61.01,1.16-.61,1.8-.4.56.19.63.83.97,1.23M1151.29,163.09c-.23.69-.99,1.1-1.66.83-.31-.06-.31-1.06-.18-2.31.33-.13.63-.31,1.02-.18.69.23,1.04,1.02.83,1.66M1150.67,182.78c.56-1.67-.35-3.51-2.03-4.07-1.67-.56-3.46.37-4.03,2.04-.07.21-.13.39-.16.61-.2-.11-.37-.17-.59-.24-.77-.26-1.3.61-2.12.34-.77-.26-.67-1.28-1.44-1.53-.77-.26-1.35.6-2.12.34-.77-.26-.7-1.33-1.49-1.55-4.49-1.55-.44-.39-.33-.73,1.52-4.55.39-.44.7-.39,1.7.62,3.49-.31,4.05-1.98.26-.77-.6-1.35-.34-2.12.26-.77,1.29-.71,1.55-1.49.24-.73-.61-1.3-.35-2.07.27-.82,1.29-.71,1.55-1.49,1.52-4.55.39-.44.74-.37,1.66.6,3.49-.31,4.01-2,1.57-4.53.4-.48.75-.37,1.67.56,3.51-.36,4.07-2.03.56-1.68-.41-3.48-2.04-4.02-.51-.17-.96.16-1.45.33.46-3.24,1.09-6.41-1.1-.27-.37-.46-.41-1.05-1.02-1.25-.77-.26-1.26.63-2.12.34-.77-.26-.71-1.29-1.49-1.55-.77-.26-1.3.61-2.07.36-.82-.27-.71-1.29-1.49-1.55-1.67-.56-3.49.31-4.05,1.98-.58,1.72.35,3.51,2.03,4.07,4.55,1.52.44.39.37.74-1.55,4.49-.39.44-.73.33-1.68-.56-3.51.35-4.07,2.03-.26.77.66,1.32.38,2.13-.26.77-1.33.7-1.58,1.43-.26.77.64,1.36.38,2.13-.26.77-1.33.7-1.59,1.47-1.51,4.51-.39.44-.69.34-1.72-.58-3.51.35-4.07,2.03-1.52,4.55-.39.44-.74.37-1.66-.6-3.46.37-4.01,2-.56,1.67.31,3.49,1.99,4.05.51.17.97-.2,1.45-.33-.46,3.24-1.05,6.43,1.1.27.39.41.46,1.06,1.06,1.26.77.26,1.26-.63,2.03-.37.82.27.8,1.32,1.53,1.56.77.26,1.3-.61,2.12-.34.77.26.71,1.29,1.45,1.53.77.26,1.35-.6,2.12-.34.77.26.71,1.29,1.49,1.55.73.24,1.3-.61,2.07-.35.82.27.71,1.29,1.49,1.55,1.67.56,3.51-.35,4.07-2.03.06-.17.08-.4.11-.63.2.11.4.23.57.29,1.72.58,3.51-.35,4.07-2.03M1092.3,168.07c-.34.17-.67.3-1.06.17-.69-.23-1.06-.98-.83-1.66.21-.64,1.02-1.04,1.66-.83.34.11.3,1.1.23,2.32M1096.61,169.04c-.63.03-1.12.63-1.76.41-.6-.2-.69-.8-1.03-1.2l.62-1.85s1.32.49,2.42.9c-.06.6-.24,1.73-.24,1.73M1096.98,166.2c-.87-.1-1.73-.25-2.38-.32l.6-1.66c.23-.69.97-1.06,1.66-.83.34.11.31,1.35.11,2.81M1110.8,173.4c-.23.69-.97,1.06-1.66.83-.86-.29-.67-1.28-1.49-1.55-.77-.26-1.3.61-2.07.36-.77-.26-.71-1.29-1.49-1.55-.77-.26-1.35.6-2.12.34-.77-.26-.67-1.28-1.44-1.53-.81-.27-1.35.6-2.12.34-.6-.2-.67-.85-1.06-1.26l.6-1.66,4.85,1.62c.77.26.7,1.33,1.47,1.59.77.26,1.36-.64,2.13-.38.73.24.66,1.32,1.43,1.58.82.27,1.36-.64,2.13-.38.69.23,1.04,1.02.83,1.66M1103.88,158.73l-2.61,7.52c-.11.34-1.39.3-2.86.14l1.56-4.54c.26-.77,1.29-.71,1.55-1.49.26-.77-.6-1.35-.34-2.12.24-.73,1.28-.67,1.53-1.44.27-.82-.6-1.35-.34-2.12.23-.69.97-1.06,1.66-.83.51.17.17,2.78-.15,4.87M1109.98,152.18l-1.52,4.55c-.3.76-1.32.66-1.59,1.47-.26.77.61,1.31.36,2.08s-1.29.71-1.55,1.49c-.26.77.6,1.35.34,2.12-.23.69-.97,1.06-1.66.83-.51-.17-.17-2.78.16-4.91l2.6-7.48c.13-.38,1.39-.3,2.86-.14M1115.64,171.06c-.27.67-1.02,1.04-1.7.81-.64-.21-1.06-.97-.83-1.66.23-.69,1.02-1.04,1.66-.83.69.23,1.1.99.87,1.68M1111.12,149.22l-.6,1.66-4.89-1.64c-.67-.27-1.04-1.02-.81-1.7.21-.64.98-1.06,1.66-.83.77.26.66,1.32,1.47,1.59.77.26,1.36-.64,2.09-.4.6.2.7.9,1.09,1.32M1113.82,152.7l-.56,1.67c-.23.69-.98,1.06-1.66.83-.38-.13-.3-1.39-.15-2.82.87.1,1.73.24,2.37.32M1114.61,150.34l-.62,1.85-2.42-.91c.11-.63.17-1.23.26-1.77.62.01,1.16-.61,1.8-.4.56.19.63.83.97,1.23M1118.02,151.96c-.23.69-.99,1.1-1.66.83-.31-.06-.31-1.06-.19-2.3.33-.13.63-.31,1.02-.18.69.23,1.04,1.02.83,1.66M1117.4,171.65c.56-1.68-.35-3.51-2.03-4.07-1.68-.56-3.46.37-4.02,2.04-.07.21-.13.39-.16.61-.2-.11-.37-.17-.58-.24-.77-.26-1.31.61-2.12.34-.77-.26-.67-1.28-1.44-1.53-.77-.26-1.35.6-2.12.34-.77-.26-.7-1.33-1.49-1.55-4.49-1.55-.44-.39-.33-.73,1.52-4.55.39-.44.7-.39,1.7.62,3.49-.31,4.05-1.98.26-.77-.6-1.35-.34-2.12.26-.77,1.29-.71,1.55-1.49.24-.73-.61-1.3-.35-2.07.27-.82,1.29-.71,1.55-1.49,1.52-4.55.39-.44.74-.37,1.66.6,3.49-.31,4.01-2,1.56-4.53.4-.48.74-.37,1.67.56,3.51-.35,4.07-2.03.56-1.68-.41-3.48-2.04-4.02-.52-.17-.96.16-1.45.33.46-3.24,1.09-6.41-1.1-.27-.37-.46-.41-1.04-1.01-1.25-.77-.26-1.26.63-2.12.34-.77-.26-.71-1.29-1.49-1.55-.77-.26-1.3.61-2.08.36-.82-.27-.71-1.29-1.49-1.55-1.67-.56-3.49.31-4.05,1.98-.57,1.72.35,3.51,2.03,4.07,4.55,1.52.44.39.37.74-1.55,4.49-.39.44-.73.33-1.67-.56-3.51.35-4.07,2.03-.26.77.66,1.32.38,2.13-.26.77-1.33.7-1.58,1.43-.26.77.64,1.36.38,2.13-.26.77-1.33.7-1.59,1.47-1.51,4.51-.39.44-.69.34-1.72-.58-3.51.35-4.07,2.03-1.52,4.55-.39.44-.74.37-1.66-.6-3.46.37-4.01,2-.56,1.67.31,3.49,1.99,4.05.51.17.97-.2,1.45-.33-.46,3.24-1.05,6.43,1.1.27.39.41.46,1.06,1.06,1.26.77.26,1.26-.63,2.03-.37.82.27.8,1.32,1.53,1.56.77.26,1.3-.61,2.12-.34.77.26.71,1.29,1.44,1.53.77.26,1.35-.6,2.12-.34.77.26.71,1.29,1.49,1.55.73.24,1.3-.61,2.08-.35.81.27.71,1.29,1.49,1.55,1.67.56,3.51-.36,4.07-2.03.06-.17.09-.4.11-.63.2.11.4.23.57.29,1.72.58,3.51-.35,4.07-2.03M1082.76,129.85c-.23.69-1.02,1.04-1.66.83-.69-.23-1.06-.97-.83-1.66.26-.77,1.29-.71,1.55-1.49.26-.77-.6-1.35-.34-2.12.23-.69.97-1.06,1.66-.83.69.23,1.04,1.02.83,1.66-.26.77-1.33.7-1.59,1.47-.26.77.64,1.36.38,2.13M1093.49,133.44c-.23.69-1.02,1.04-1.66.83-.69-.23-1.06-.97-.83-1.66.26-.77,1.29-.71,1.55-1.49.26-.77-.6-1.35-.34-2.12.23-.69.97-1.06,1.66-.83s1.04,1.02.83,1.66c-.26.77-1.33.7-1.59,1.47-.26.77.64,1.36.38,2.13M1084.56,130.45c.26-.77-.6-1.35-.34-2.12.26-.77,1.29-.71,1.55-1.49.55-1.63-.37-3.46-2-4.01-1.67-.56-3.49.31-4.05,1.99-.26.77.6,1.35.34,2.12-.26.77-1.29.71-1.55,1.49-.56,1.67.37,3.46,2.04,4.02,1.63.55,3.46-.37,4.01-2M1095.38,134.07c.21-.79-.64-1.36-.38-2.13.26-.77,1.29-.71,1.55-1.49.55-1.63-.37-3.46-2-4.01-1.67-.56-3.49.31-4.05,1.99-.26.77.6,1.35.34,2.12-.26.77-1.29.71-1.55,1.49-.56,1.67.37,3.46,2.04,4.02,1.67.56,3.49-.31,4.05-1.99M1057.11,156.3c-.34.17-.67.3-1.06.17-.69-.23-1.06-.98-.83-1.66.21-.64,1.02-1.04,1.66-.83.34.12.3,1.1.23,2.32M1064.88,158.04c-.23.69-.97,1.06-1.66.83-.86-.29-.67-1.28-1.49-1.55-.77-.26-1.3.61-2.07.35-.6-.2-.69-.8-1.03-1.2l.58-1.72,4.85,1.62c.69.23,1.04,1.02.83,1.66M1062.51,153.28c-.11.34-1.39.3-2.86.14l.37-.97c.3-.76,1.27-.67,1.55-1.49.26-.77-.61-1.3-.36-2.07.23-.69.98-1.06,1.66-.83.69.23,1.06.98.83,1.66-.24.73-1.32.66-1.58,1.43-.27.82.64,1.36.38,2.13M1072.14,160.85c-.63.03-1.12.63-1.76.41-.69-.23-1.06-.97-.83-1.66.2-.6.84-.67,1.26-1.06.47.16.97.37,1.57.57-.06.6-.16,1.19-.24,1.73M1072.52,158.02l-1.37-.17c-.01-.67-.63-1.12-.4-1.8.23-.69.97-1.06,1.66-.83.34.11.31,1.35.11,2.81M1079.25,162.85c-.27.67-1.02,1.04-1.7.81-.77-.26-.67-1.27-1.45-1.53-.81-.27-1.35.6-2.12.34-.6-.2-.67-.85-1.06-1.26l.6-1.66,4.85,1.62c.69.23,1.09,1.03.87,1.68M1078.35,153.72l-1.51,4.36c-.11.34-1.39.3-2.86.14l1.56-4.54c.29-.86,1.66-.97,1.59-1.9-.06-.54-.28-1-.69-1.38-.68-.66-1.53.44-2.43.14-.77-.26-.71-1.29-1.49-1.55-.77-.26-1.35.6-2.12.34-.77-.26-.67-1.27-1.45-1.53-.81-.27-1.35.6-2.12.34-.69-.23-1.06-.98-.83-1.66.19-.56.79-.64,1.23-.97l3.99,1.33c.77.26.7,1.33,1.47,1.59.77.26,1.36-.64,2.13-.38.73.24.66,1.32,1.43,1.58.82.27,1.36-.64,2.13-.38.47.16.18,2.45-.06,4.46M1069.7,143.76c-.1.3-1.06.31-2.3.18-.17-.34-.31-.63-.18-1.02.23-.69.97-1.06,1.66-.83.69.23,1.06.97.83,1.66M1074.5,141.4c-.23.69-.98,1.06-1.66.83-.64-.21-1.04-1.02-.83-1.66.23-.69.97-1.06,1.66-.83.69.23,1.06.98.83,1.66M1081.34,145.65c-.27.82-1.33.7-1.55,1.49-1.56,4.53-.44.47-.74.37-.9-.3-1.3.61-2.12.34-.77-.26-.67-1.28-1.44-1.53-.77-.26-1.35.6-2.12.34-.77-.26-.7-1.33-1.49-1.55-4.49-1.55-.43-.43-.33-.73.07-.21.09-.4.11-.63.2.11.37.17.59.24,1.68.56,3.49-.31,4.05-1.99.07-.21.14-.43.16-.61.16.1.37.17.59.24.69.23,1.26-.63,2.12-.34.81.27.63,1.26,1.44,1.53,4.55,1.52.44.39.37.74-.29.71.61,1.3.35,2.07M1085.75,144.02l-2.86,8.11c-.3.76-1.33.7-1.59,1.47-.26.77.6,1.35.34,2.12-.23.69-.98,1.06-1.66.83-.47-.16-.18-2.45.11-4.45l1.46-4.38c.26-.77,1.32-.66,1.59-1.47.26-.77-.64-1.36-.4-2.09.13-.39,1.45-.33,3.01-.14M1086.48,141.4c-.11.49-3.46.23-5.22-.36-.73-.24-.67-1.27-1.49-1.55-.77-.26-1.3.61-2.08.36-.69-.23-1.06-.98-.83-1.66.23-.69.98-1.06,1.66-.83.73.24.66,1.32,1.43,1.58.82.27,1.41-.63,2.13-.38.77.26.66,1.32,1.47,1.59.77.26,1.36-.64,2.09-.4.69.23,1.1.99.83,1.66M1087.68,149.78c-.23.69-1.02,1.04-1.66.83-.69-.23.08-4.37.35-6.47,0,0,.86.14,1.67.42.64.21,1.06.97.83,1.66-.24.73-1.32.66-1.58,1.43-.27.82.64,1.36.38,2.13M1089.53,150.39c.21-.79-.66-1.32-.38-2.13.26-.77,1.27-.67,1.53-1.44.56-1.68-.31-3.49-1.99-4.05-4.55-1.52-.48-.4-.37-.74.56-1.68-.37-3.46-2.04-4.02-.77-.26-1.3.61-2.08.36-.81-.27-.71-1.29-1.49-1.55-.77-.26-1.3.61-2.12.34-.77-.26-.67-1.27-1.44-1.53-1.67-.56-3.49.31-4.05,1.99-.07.21-.14.43-.16.61-.16-.1-.37-.17-.59-.24-1.67-.56-3.46.37-4.02,2.04-.07.21-.13.39-.16.62-.2-.11-.36-.21-.57-.29-1.68-.56-3.51.35-4.07,2.03-.17.51.2.97.37,1.46-3.28-.48-6.41-1.09-.32,1.09-.42.39-1.06.46-1.25,1.02-.07.21-.1.44-.12.63-.2-.11-.41-.19-.59-.24-1.72-.57-3.49.31-4.07,2.03-.24.73.61,1.3.36,2.08-.27.81-1.29.71-1.55,1.49-.18.56-.33.99-.44,1.33l-.27-.04c.06-.46.11-.92-.03-.92-1.66-.6-3.46.37-4.01,2-.56,1.68.31,3.49,1.98,4.05.52.17.97-.2,1.45-.33-.46,3.23-1.05,6.42,1.1.27.39.42.46,1.06,1.06,1.26.73.24,1.3-.61,2.07-.35.82.27.71,1.29,1.49,1.55,1.68.56,3.51-.36,4.07-2.03.56-1.67-.36-3.51-2.04-4.02-4.53-1.56-.43-.43-.37-.74.3-.76-.61-1.3-.34-2.12.26-.77,1.28-.67,1.53-1.44.07-.21.14-.43.16-.62.2.11.37.17.59.24.77.26,1.3-.61,2.12-.34.77.26.71,1.29,1.44,1.53.77.26,1.35-.6,2.12-.34.77.26.71,1.29,1.49,1.55.64.22,1.4-1.34,1.83-.48.4.8-1.26.49-1.5,1.22-1.51,4.51-.39.44-.69.34-1.72-.57-3.51.36-4.07,2.03-.27.82.64,1.22.34,2.12-.24.73-1.29.71-1.53,1.44-.56,1.67.31,3.49,2.03,4.07.73.24,1.3-.61,2.07-.35.86.29.71,1.29,1.49,1.55.77.26,1.3-.61,2.12-.34.77.26.71,1.29,1.44,1.53,1.72.57,3.51-.36,4.07-2.03.56-1.68-.36-3.51-2.04-4.02-4.49-1.55-.44-.39-.33-.73,1.52-4.55.39-.44.7-.38,1.7.62,3.49-.31,4.05-1.99.26-.77-.6-1.35-.34-2.12.26-.77,1.29-.71,1.55-1.49,1.51-4.51.39-.44.73-.33,1.68.56,3.51-.35,4.07-2.03M1032.94,148.21c-.34.17-.67.3-1.06.17-.69-.23-1.06-.97-.83-1.66.21-.64.97-1.06,1.66-.83.34.11.3,1.1.23,2.32M1031.17,142.8c-.23.69-.97,1.06-1.66.83-.69-.23-1.06-.97-.83-1.66.23-.69.97-1.06,1.66-.83.69.23,1.06.98.83,1.66M1037.51,143.54c.47.16.24,3.42-.36,5.22-.23.69-.97,1.06-1.66.83-.6-.2-.69-.8-1.03-1.2l1.35-4.03c.27-.67,1.02-1.04,1.7-.81M1044.52,138.86l-2.61,7.53c-.23.69-.98,1.06-1.66.83-.47-.16-.24-3.42.37-5.22.24-.73,1.29-.71,1.55-1.49.26-.77-.6-1.35-.34-2.12.24-.73,1.28-.67,1.53-1.44.27-.82-.6-1.35-.34-2.12.23-.69.97-1.06,1.66-.83.52.17.17,2.78-.15,4.87M1050.62,132.32l-1.52,4.55c-.3.76-1.32.66-1.59,1.47-.26.77.61,1.3.35,2.07-.26.77-1.29.71-1.55,1.49-.26.77.6,1.35.34,2.12-.23.69-.98,1.06-1.66.83-.51-.17-.17-2.78.16-4.91l2.6-7.48c.13-.39,1.39-.3,2.86-.14M1051.71,129.34l-.6,1.66-4.89-1.64c-.67-.27-1.04-1.02-.81-1.7.21-.64.98-1.06,1.66-.83.77.26.66,1.32,1.47,1.59.77.26,1.36-.64,2.09-.4.6.2.7.9,1.09,1.32M1054.41,132.82l-.56,1.67c-.23.69-.98,1.06-1.66.83-.39-.13-.3-1.39-.15-2.82.87.1,1.73.25,2.37.32M1055.2,130.46l-.62,1.85-2.42-.9c.11-.63.17-1.23.26-1.77.62.01,1.16-.61,1.8-.4.56.19.63.83.97,1.23M1058.62,132.08c-.23.69-.99,1.1-1.66.83-.31-.06-.31-1.06-.18-2.3.33-.13.63-.31,1.02-.18.69.23,1.04,1.02.83,1.66M1060.43,132.69c.56-1.68-.41-3.48-2.04-4.03-.51-.17-.96.16-1.45.33.46-3.23,1.09-6.41-1.1-.27-.37-.46-.41-1.05-1.01-1.25-.77-.26-1.3.61-2.08.35-.86-.29-.71-1.29-1.53-1.56-.77-.26-1.3.61-2.07.35-.82-.27-.71-1.29-1.49-1.55-1.68-.56-3.49.31-4.05,1.99-.57,1.72.35,3.51,2.03,4.07,4.55,1.52.44.39.37.75-1.55,4.49-.39.44-.73.33-1.67-.56-3.51.35-4.07,2.03-.26.77.66,1.32.38,2.13-.26.77-1.33.7-1.58,1.43-.23.69.61,1.3.34,2.12-.3.9-1.27.67-1.55,1.49-1.51,4.51-.39.44-.69.34-1.72-.57-3.51.35-4.07,2.03-1.52,4.55-.39.44-.74.37-.16-.1-.39-.13-.62-.16.11-.2.21-.36.29-.57.56-1.67-.35-3.51-2.03-4.07-1.67-.56-3.51.35-4.07,2.03-.56,1.68.35,3.51,2.03,4.07.21.07.4.09.63.12-.11.2-.17.37-.24.58-.56,1.68.31,3.49,1.99,4.05.51.17.97-.2,1.45-.33-.46,3.23-1.05,6.43,1.1.27.39.42.46,1.06,1.06,1.26,1.67.56,3.51-.35,4.02-2.04,1.55-4.49.39-.44.73-.33,1.67.56,3.51-.35,4.07-2.03,1.52-4.55.39-.44.7-.38,1.7.62,3.49-.31,4.05-1.99.26-.77-.6-1.35-.34-2.12.26-.77,1.29-.71,1.55-1.49.24-.73-.61-1.3-.35-2.07.27-.82,1.29-.71,1.55-1.49,1.52-4.55.39-.44.74-.37,1.66.6,3.49-.31,4.01-2,1.56-4.53.4-.49.74-.37,1.67.56,3.51-.35,4.07-2.03M1001.35,137.64c-.34.17-.67.3-1.06.17-.69-.23-1.06-.98-.83-1.66.21-.64,1.02-1.04,1.66-.83.34.11.3,1.1.23,2.32M1005.66,138.61c-.63.03-1.12.63-1.76.41-.6-.2-.69-.8-1.03-1.2l.62-1.85,2.42.9c-.06.6-.25,1.73-.25,1.73M1006.04,135.77c-.87-.1-1.73-.25-2.38-.32l.6-1.66c.23-.69.97-1.06,1.66-.83.34.11.31,1.35.11,2.81M1012.77,140.6c-.27.67-1.02,1.04-1.7.81-.77-.26-.67-1.27-1.44-1.53-.82-.27-1.35.6-2.12.34-.6-.2-.67-.85-1.06-1.26l.6-1.66,4.85,1.62c.69.23,1.09,1.03.87,1.68M1012.97,128.31l-2.61,7.52c-.11.34-1.39.3-2.86.14l1.57-4.54c.26-.77,1.29-.71,1.55-1.49.26-.77-.6-1.35-.34-2.12.19-.56.89-.66,1.31-1.04.43.14.93.36,1.53.56l-.13.96ZM1016.78,128.63l-1.62,4.85c-.27.67-1.02,1.04-1.7.81-.51-.17-.17-2.78.16-4.91l.59-1.62s1.59.53,2.57.86M1013.27,126.26l-1.42-.19c-.01-.67-.61-1.16-.4-1.8.23-.69.97-1.06,1.66-.83.34.11.31,1.35.15,2.82M1019.07,121.76l-1.52,4.55c-.16.33-1.39.3-2.86.14l1.52-4.55c.13-.39,1.39-.3,2.86-.14M1027.14,133.48c-.27.67-1.02,1.04-1.7.81-.77-.26-.67-1.27-1.44-1.53-.82-.27-1.35.6-2.12.34-.77-.26-.67-1.27-1.49-1.55-.77-.26-1.3.61-2.08.36-.3-.1-.31-1.35-.15-2.82l.99.33c.73.24.66,1.32,1.43,1.58.82.27,1.41-.63,2.13-.38.77.26.66,1.32,1.47,1.59.77.26,1.36-.64,2.09-.4.69.23,1.09,1.03.87,1.68M1020.21,118.8l-.6,1.66-4.89-1.64c-.67-.27-1.04-1.02-.81-1.7.22-.64.98-1.06,1.66-.83.77.26.66,1.32,1.47,1.59.77.26,1.36-.64,2.09-.4.6.2.7.9,1.09,1.32M1022.91,122.28l-.56,1.67c-.23.69-.97,1.06-1.66.83-.39-.13-.3-1.39-.16-2.82.87.1,1.73.25,2.38.32M1023.7,119.92l-.62,1.85-2.42-.9c.11-.63.17-1.23.26-1.77.62.01,1.16-.61,1.8-.4.56.18.63.83.97,1.23M1033.08,127.54c-.23.69-1.02,1.04-1.66.83-.69-.23-1.09-1.03-.83-1.66.07-.36,1.06-.31,2.32-.23.13.33.3.67.17,1.06M1034.29,123.94c-.19.56-.85.67-1.25,1.01l-4.03-1.35c-.71-.29-.66-1.32-1.43-1.58-.82-.27-1.36.64-2.12.34-.31-.06-.31-1.06-.18-2.3.33-.13.63-.31,1.02-.18.77.26.66,1.32,1.47,1.59.77.26,1.36-.64,2.09-.4.77.26.7,1.33,1.47,1.59.77.26,1.36-.64,2.13-.38.69.23,1.06.97.83,1.66M1034.56,126.7c3.23.46,6.43,1.05.27-1.1.46-.37,1.06-.45,1.26-1.06.59-1.76-.37-3.46-2-4.01-.77-.26-1.35.6-2.12.34-.77-.26-.71-1.29-1.49-1.55-.77-.26-1.3.61-2.07.35-.82-.27-.71-1.29-1.49-1.55-.51-.17-.96.16-1.45.33.46-3.23,1.09-6.41-1.1-.27-.37-.46-.41-1.05-1.02-1.25-.77-.26-1.26.63-2.07.35-.82-.27-.71-1.29-1.53-1.56-.77-.26-1.3.61-2.07.36-.82-.27-.71-1.29-1.49-1.55-1.67-.56-3.49.31-4.05,1.99-.58,1.72.35,3.51,2.03,4.07,4.55,1.52.44.39.37.75-1.55,4.49-.39.44-.73.33-1.68-.56-3.51.36-4.07,2.03-.27.82.67,1.28.38,2.13-.24.73-1.33.7-1.58,1.43-.26.77.64,1.36.38,2.13-.26.77-1.33.7-1.59,1.47-1.51,4.51-.39.44-.69.34-1.72-.57-3.51.36-4.07,2.03-1.52,4.55-.39.44-.74.37-1.66-.6-3.46.37-4.01,2-.56,1.68.31,3.49,1.98,4.05.52.17.97-.2,1.45-.33-.46,3.23-1.05,6.42,1.1.27.39.42.46,1.06,1.06,1.26.77.26,1.22-.64,2.07-.35.69.23.76,1.3,1.49,1.55.77.26,1.3-.61,2.12-.34.77.26.71,1.29,1.44,1.53,1.72.57,3.51-.36,4.07-2.03.56-1.68-.36-3.51-2.04-4.02-4.49-1.55-.44-.39-.33-.73,1.52-4.55.39-.44.7-.38,1.7.62,3.49-.31,4.05-1.99,1.52-4.55.4-.49.75-.37.73.24,1.3-.61,2.07-.36.82.27.76,1.3,1.49,1.55.77.26,1.31-.61,2.12-.34.77.26.71,1.29,1.44,1.53,1.72.57,3.51-.35,4.07-2.03.56-1.67-.37-3.46-2.04-4.02-.77-.26-1.3.61-2.07.36-.82-.27-.71-1.29-1.49-1.55-.77-.26-1.3.61-2.12.34-.77-.26-.58-1.25-1.44-1.53-.51-.17-1.02-.39-1.32-.49l.04-.27c.4.09.87.1.9.01,1.52-4.55.39-.44.75-.37,1.66.6,3.49-.31,4.01-2,1.57-4.54.44-.47.74-.37.77.26,1.31-.61,2.12-.34.77.26.71,1.29,1.44,1.53,4.55,1.52.49.4.37.74-.56,1.68.37,3.46,2.04,4.02,1.67.56,3.49-.31,4.05-1.98.13-.53-.2-.97-.37-1.46M968.18,126.54c-.34.17-.67.3-1.06.17-.69-.23-1.06-.97-.83-1.66.21-.64,1.02-1.04,1.66-.83.34.11.3,1.1.23,2.32M972.48,127.5c-.63.03-1.12.63-1.76.41-.6-.2-.69-.8-1.03-1.2l.62-1.85s1.32.49,2.42.91c-.06.6-.24,1.73-.24,1.73M972.86,124.67c-.87-.1-1.73-.24-2.38-.32l.6-1.66c.23-.69.97-1.06,1.66-.83.34.11.31,1.35.11,2.8M986.68,131.87c-.23.69-.98,1.06-1.66.83-.86-.29-.67-1.27-1.49-1.55-.77-.26-1.3.61-2.07.36-.77-.26-.71-1.29-1.49-1.55-.77-.26-1.35.6-2.12.34-.77-.26-.67-1.27-1.44-1.53-.81-.27-1.35.6-2.12.34-.6-.2-.67-.84-1.06-1.26l.6-1.66,4.85,1.62c.77.26.7,1.33,1.47,1.59.77.26,1.36-.64,2.13-.38.73.24.66,1.32,1.43,1.58.81.27,1.36-.64,2.13-.38.69.23,1.04,1.02.83,1.66M979.75,117.2l-2.61,7.52c-.11.34-1.39.3-2.86.14l1.56-4.54c.26-.77,1.29-.71,1.55-1.49.26-.77-.6-1.35-.34-2.12.24-.73,1.27-.67,1.53-1.44.27-.82-.6-1.35-.34-2.12.23-.69.97-1.06,1.66-.83.51.17.17,2.78-.15,4.87M985.85,110.65l-1.52,4.55c-.3.76-1.32.66-1.59,1.47-.26.77.61,1.3.36,2.08-.26.77-1.29.71-1.55,1.49-.26.77.6,1.35.34,2.12-.23.69-.97,1.06-1.66.83-.51-.17-.17-2.78.16-4.91l2.6-7.48c.13-.39,1.39-.3,2.86-.14M991.52,129.53c-.27.67-1.02,1.04-1.7.81-.64-.21-1.06-.97-.83-1.66.23-.69,1.02-1.04,1.66-.83.69.23,1.1.99.87,1.68M986.99,107.68l-.6,1.66-4.89-1.64c-.67-.27-1.04-1.02-.81-1.7.21-.64.98-1.06,1.66-.83.77.26.66,1.32,1.47,1.59.77.26,1.36-.64,2.09-.4.6.2.7.9,1.09,1.32M989.69,111.17l-.56,1.67c-.23.69-.98,1.06-1.66.83-.39-.13-.3-1.39-.15-2.82.87.1,1.73.25,2.37.32M990.48,108.81l-.62,1.85-2.42-.9c.11-.63.17-1.23.26-1.77.61.01,1.16-.61,1.8-.4.56.19.63.83.97,1.23M993.9,110.43c-.23.69-.99,1.1-1.66.83-.31-.06-.31-1.06-.18-2.3.33-.13.63-.31,1.02-.18.69.23,1.04,1.02.83,1.66M993.28,130.12c.56-1.67-.35-3.51-2.03-4.07-1.68-.56-3.46.37-4.02,2.04-.07.21-.13.38-.16.61-.2-.11-.37-.17-.59-.24-.77-.26-1.3.61-2.12.34-.77-.26-.67-1.28-1.44-1.53-.77-.26-1.35.6-2.12.34-.77-.26-.7-1.33-1.49-1.55-4.49-1.55-.44-.39-.33-.73,1.52-4.55.39-.44.7-.38,1.7.62,3.49-.31,4.05-1.99.26-.77-.6-1.35-.34-2.12.26-.77,1.29-.71,1.55-1.49.24-.73-.61-1.3-.35-2.07.27-.82,1.29-.71,1.55-1.49,1.52-4.55.39-.44.74-.37,1.66.6,3.49-.31,4.01-2,1.56-4.54.4-.49.74-.37,1.67.56,3.51-.35,4.07-2.03.56-1.67-.41-3.48-2.04-4.02-.51-.17-.96.16-1.45.33.46-3.23,1.09-6.41-1.1-.27-.37-.46-.41-1.05-1.01-1.25-.77-.26-1.26.63-2.12.34-.77-.26-.71-1.29-1.49-1.55-.77-.26-1.3.61-2.07.35-.82-.27-.71-1.29-1.49-1.55-1.68-.56-3.49.31-4.05,1.99-.57,1.72.35,3.51,2.03,4.07,4.55,1.52.44.39.37.75-1.55,4.49-.39.44-.73.33-1.67-.56-3.51.35-4.07,2.03-.26.77.66,1.32.38,2.13-.26.77-1.33.7-1.58,1.43-.26.77.64,1.36.38,2.13-.26.77-1.33.7-1.59,1.47-1.51,4.51-.39.44-.69.34-1.72-.57-3.51.35-4.07,2.03-1.52,4.55-.39.44-.75.37-1.66-.6-3.46.37-4.01,2-.56,1.68.31,3.49,1.99,4.05.51.17.97-.2,1.45-.33-.46,3.23-1.05,6.42,1.1.27.39.42.46,1.06,1.06,1.26.77.26,1.26-.63,2.03-.37.82.27.8,1.32,1.53,1.56.77.26,1.3-.61,2.12-.34.77.26.71,1.29,1.44,1.53.77.26,1.35-.6,2.12-.34.77.26.71,1.29,1.49,1.55.73.24,1.3-.61,2.07-.35.82.27.71,1.29,1.49,1.55,1.67.56,3.51-.35,4.07-2.03.06-.17.09-.4.11-.63.2.11.4.23.57.29,1.72.57,3.51-.35,4.07-2.03M934.83,115.38c-.34.17-.67.3-1.06.17-.69-.23-1.06-.98-.83-1.66.21-.64,1.02-1.04,1.66-.83.34.11.3,1.1.23,2.32M939.13,116.35c-.63.03-1.12.63-1.76.41-.6-.2-.69-.8-1.03-1.2l.62-1.85,2.42.9c-.06.6-.16,1.19-.24,1.73M939.51,113.51c-.87-.1-1.73-.24-2.38-.32l.6-1.66c.23-.69.97-1.06,1.66-.83.34.11.31,1.35.11,2.81M953.33,120.71c-.23.69-.97,1.06-1.66.83-.77-.26-.67-1.28-1.49-1.55-.77-.26-1.3.61-2.07.35-.77-.26-.71-1.29-1.49-1.55-.77-.26-1.35.6-2.12.34-.77-.26-.67-1.28-1.44-1.53-.81-.27-1.35.6-2.12.34-.6-.2-.67-.85-1.06-1.26l.6-1.66,4.85,1.62c.77.26.7,1.33,1.47,1.59.77.26,1.36-.64,2.13-.38.73.24.66,1.32,1.43,1.58.81.27,1.36-.64,2.13-.38.69.23,1.04,1.02.83,1.66M946.4,106.04l-2.61,7.52c-.11.34-1.39.3-2.86.14l1.56-4.53c.26-.77,1.29-.71,1.55-1.49.26-.77-.6-1.35-.34-2.12.19-.56.89-.66,1.3-1.04l1.53.56-.13.96ZM950.21,106.35l-1.62,4.85c-.27.67-1.02,1.04-1.7.81-.51-.17-.17-2.78.16-4.91l.59-1.62,2.57.86ZM946.7,103.99l-1.42-.19c-.01-.67-.61-1.16-.4-1.8.23-.69.97-1.06,1.66-.83.34.11.31,1.35.16,2.82M958.17,118.37c-.27.67-1.02,1.04-1.7.81-.64-.22-1.06-.98-.83-1.66s1.02-1.04,1.66-.83c.69.23,1.1.99.87,1.68M952.55,99.5l-1.52,4.55c-.16.33-1.39.3-2.86.14l1.52-4.55c.13-.39,1.39-.3,2.86-.14M960.61,111.22c-.27.67-1.02,1.04-1.7.81-.77-.26-.67-1.27-1.44-1.53-.82-.27-1.35.6-2.12.34-.77-.26-.67-1.28-1.49-1.55-.77-.26-1.3.61-2.07.35-.43-.14-.31-1.35-.16-2.82l.99.33c.73.24.66,1.32,1.43,1.58.82.27,1.4-.63,2.13-.38.77.26.66,1.32,1.47,1.59.77.26,1.36-.64,2.09-.4.69.23,1.09,1.03.87,1.68M953.68,96.54l-.6,1.66-4.89-1.64c-.67-.27-1.04-1.02-.81-1.7.22-.64.98-1.06,1.66-.83.77.26.66,1.32,1.47,1.59.77.26,1.36-.64,2.09-.4.6.2.7.9,1.09,1.32M956.38,100.02l-.56,1.67c-.23.69-.98,1.06-1.66.83-.38-.13-.3-1.39-.15-2.82.87.1,1.73.25,2.37.32M957.17,97.66l-.62,1.85-2.42-.91s.17-1.23.26-1.77c.62.01,1.16-.61,1.8-.4.56.19.63.83.97,1.23M966.55,105.28c-.23.69-1.02,1.04-1.66.83-.69-.23-1.09-1.03-.83-1.66.07-.36,1.06-.31,2.32-.23.13.33.3.67.17,1.06M967.76,101.68c-.18.56-.84.67-1.25,1.02l-4.03-1.35c-.71-.29-.66-1.32-1.43-1.58-.82-.27-1.36.64-2.12.34-.31-.06-.31-1.06-.18-2.31.33-.13.63-.31,1.02-.18.77.26.66,1.32,1.47,1.59.77.26,1.36-.64,2.09-.4.77.26.7,1.33,1.47,1.59.77.26,1.36-.64,2.13-.38.69.23,1.06.97.83,1.66M968.4,105.9c.13-.53-.2-.97-.37-1.46,3.23.46,6.42,1.05.27-1.1.46-.37,1.06-.46,1.26-1.06.55-1.63-.37-3.46-2-4.01-.77-.26-1.35.6-2.12.34-.77-.26-.71-1.29-1.49-1.55-.77-.26-1.3.61-2.08.36-.81-.27-.71-1.29-1.49-1.55-.51-.17-.96.16-1.45.33.46-3.23,1.09-6.41-1.1-.27-.37-.46-.41-1.05-1.01-1.25-.82-.27-1.22.64-2.16.33-.73-.24-.67-1.27-1.44-1.53-.77-.26-1.3.61-2.08.36-.81-.27-.71-1.29-1.49-1.55-1.68-.56-3.49.31-4.05,1.99-.57,1.72.35,3.51,2.03,4.07,4.55,1.52.44.39.37.75-1.55,4.49-.39.44-.73.33-1.67-.56-3.51.36-4.07,2.03-.27.82.66,1.32.35,2.22-.24.73-1.3.61-1.55,1.34-.26.77.64,1.36.38,2.13-.26.77-1.33.7-1.59,1.47-1.51,4.51-.39.44-.69.34-1.72-.57-3.51.36-4.07,2.03-1.52,4.55-.39.44-.74.37-1.66-.6-3.46.37-4.01,2-.56,1.68.31,3.49,1.98,4.05.52.17.97-.2,1.45-.33-.46,3.23-1.05,6.43,1.1.27.38.42.46,1.06,1.06,1.26.77.26,1.22-.64,2.08-.35.82.27.76,1.3,1.49,1.55.77.26,1.3-.61,2.12-.34.77.26.71,1.29,1.44,1.53.77.26,1.35-.6,2.12-.34.77.26.71,1.29,1.49,1.55.73.24,1.3-.61,2.08-.36.81.27.71,1.29,1.49,1.55,1.68.56,3.51-.35,4.07-2.03.06-.17.09-.4.11-.63.2.11.4.23.57.29,1.72.57,3.51-.35,4.07-2.03.56-1.67-.35-3.51-2.03-4.07-1.67-.56-3.51.35-4.02,2.04-.11.2-.13.38-.16.61-.2-.11-.37-.17-.59-.24-.77-.26-1.3.61-2.12.34-.77-.26-.67-1.28-1.44-1.53-.77-.26-1.35.6-2.12.34-.77-.26-.7-1.33-1.49-1.55-4.49-1.55-.44-.39-.33-.73,1.52-4.55.39-.44.7-.38,1.7.62,3.49-.31,4.05-1.99,1.52-4.55.4-.48.74-.37.73.24,1.3-.61,2.08-.36.81.27.76,1.3,1.49,1.55.77.26,1.3-.61,2.12-.34.77.26.71,1.29,1.44,1.53,1.72.57,3.51-.35,4.07-2.03.56-1.67-.37-3.46-2.04-4.02-.77-.26-1.3.61-2.08.36-.81-.27-.71-1.29-1.49-1.55-.77-.26-1.3.61-2.12.34-.77-.26-.63-1.26-1.44-1.53-.51-.17-1.02-.39-1.32-.49l.04-.27c.4.09.87.1.9.01,1.52-4.55.39-.44.75-.37,1.66.6,3.49-.31,4.01-2,1.56-4.54.44-.47.74-.37.77.26,1.3-.61,2.12-.34.77.26.71,1.29,1.44,1.53,4.55,1.52.49.4.37.74-.56,1.68.37,3.46,2.04,4.03,1.67.56,3.49-.31,4.05-1.99M907.01,106.08c-.34.17-.63.31-1.02.18-.69-.23-1.06-.98-.83-1.66s.97-1.06,1.66-.83c.3.1.3,1.1.18,2.31M911.01,107.13c-.49.17-.93.5-1.45.33-.6-.2-.68-.8-1.03-1.2l.66-1.83,2.16.82-.34,1.89ZM911.51,104.19c-.82-.13-1.55-.23-2.15-.29l.56-1.67c.23-.69.97-1.06,1.66-.83.26.09.16,1.25-.07,2.79M918.39,109.02c-.23.69-.97,1.06-1.66.83-.77-.26-.71-1.29-1.49-1.55-.77-.26-1.35.6-2.12.34-.6-.2-.67-.85-1.01-1.25l.56-1.68,4.89,1.64c.69.23,1.04,1.02.83,1.66M918.63,96.74l-2.61,7.52c-.16.33-1.39.3-2.86.14l1.52-4.55c.26-.77,1.33-.7,1.59-1.47.26-.77-.64-1.36-.38-2.13.24-.73,1.32-.66,1.58-1.43.27-.81-.64-1.36-.38-2.13.23-.69.97-1.06,1.66-.83.56.19.17,2.78-.11,4.88M913.63,87.58c-.22.64-1.02,1.04-1.66.83-.69-.23-1.06-.98-.83-1.66.23-.69.98-1.06,1.66-.83s1.06.97.83,1.66M924.69,90.18l-1.52,4.55c-.26.77-1.32.66-1.59,1.47-.26.77.64,1.36.4,2.09-.26.77-1.33.7-1.59,1.47-.26.77.64,1.36.38,2.13-.23.69-.97,1.06-1.66.83-.56-.19-.17-2.78.12-4.92l2.6-7.48c.17-.37,1.39-.3,2.86-.14M925.78,87.21l-.6,1.66-4.89-1.64c-.72-.29-.66-1.32-1.43-1.58-.81-.27-1.35.6-2.12.34-.69-.23-1.06-.97-.83-1.66.21-.64.97-1.06,1.66-.83.77.26.66,1.32,1.47,1.59.77.26,1.36-.64,2.09-.4.77.26.7,1.33,1.47,1.59.77.26,1.36-.64,2.13-.38.56.18.66.89,1.04,1.3M928.49,90.69l-.56,1.68c-.23.69-.97,1.06-1.66.83-.34-.12-.3-1.39-.16-2.82.92.11,1.73.24,2.38.32M929.32,88.34l-.66,1.83-2.37-.89c.07-.64.17-1.23.22-1.79.66.03,1.16-.61,1.8-.4.56.19.67.85,1.02,1.25M935.09,94.76c-.23.69-1.02,1.04-1.66.83-.69-.23-1.09-1.03-.83-1.66.07-.36,1.06-.31,2.32-.23.13.33.3.67.17,1.06M936.3,91.15c-.19.56-.85.67-1.25,1.01l-4.03-1.35c-.29-.14-.3-1.1-.17-2.35.33-.13.67-.3,1.02-.18.77.26.7,1.33,1.47,1.59.77.26,1.36-.64,2.13-.38.69.23,1.06.97.83,1.66M936.94,95.38c.13-.53-.2-.97-.37-1.46,3.24.46,6.43,1.05.27-1.1.46-.37,1.06-.45,1.26-1.06.53-1.59-.37-3.46-2-4.01-.77-.26-1.35.6-2.12.34-.77-.26-.71-1.29-1.49-1.55-.51-.17-.92.17-1.4.34.42-3.25,1.05-6.43-1.14-.29-.33-.44-.41-1.05-1.02-1.25-.81-.27-1.17.66-2.16.33-.73-.24-.63-1.26-1.4-1.52-.77-.26-1.35.6-2.12.34-.77-.26-.71-1.29-1.49-1.55-.77-.26-1.3.61-2.07.35-.82-.27-.71-1.29-1.49-1.55-1.68-.56-3.49.31-4.05,1.99-.07.21-.1.44-.11.63-.2-.11-.41-.19-.59-.24-1.72-.57-3.51.35-4.07,2.03-.56,1.68.37,3.46,2.04,4.02,1.63.55,3.46-.37,4.01-2,.07-.21.14-.43.16-.62.2.11.37.17.59.24.77.26,1.3-.61,2.12-.34.77.26.71,1.29,1.44,1.53,4.55,1.52.49.4.37.74-1.51,4.51-.39.44-.73.33-1.68-.56-3.46.37-4.02,2.04-.26.77.61,1.31.34,2.12-.26.77-1.27.67-1.53,1.44-.26.77.6,1.35.34,2.12-.26.77-1.29.71-1.55,1.49-1.94,5.79-.43.43-.73.33-1.67-.56-3.51.35-4.07,2.03-1.52,4.55-.39.44-.7.38-1.72-.57-3.49.31-4.05,1.99-.57,1.72.31,3.49,2.03,4.07.51.17.93-.21,1.4-.34-.42,3.25-1.05,6.42,1.15.29.34.4.45,1.06,1.01,1.25.64.21,1.12-.34,1.72-.43-.48,2.7-.68,4.16.8.32.39.41.44,1.1,1.04,1.3.77.26,1.35-.6,2.12-.34.77.26.71,1.29,1.49,1.55,1.67.56,3.46-.37,4.02-2.04.55-1.63-.31-3.49-2-4.01-4.54-1.56-.49-.4-.37-.74,1.52-4.55.39-.44.74-.37,1.66.6,3.46-.37,4.01-2,.26-.77-.6-1.35-.34-2.12.26-.77,1.29-.71,1.55-1.49.26-.77-.61-1.3-.36-2.08.27-.81,1.33-.7,1.55-1.49,1.56-4.54.39-.44.74-.37,1.66.6,3.49-.31,4.05-1.99,1.52-4.55.4-.48.7-.38,4.55,1.52.49.4.37.74-.56,1.68.37,3.46,2.04,4.02,1.68.56,3.49-.31,4.05-1.98M875.55,95.55c-.34.17-.63.31-1.02.18-.69-.23-1.06-.97-.83-1.66.23-.69.97-1.06,1.66-.83.3.1.3,1.1.18,2.3M879.54,96.6c-.49.17-.93.5-1.45.33-.6-.2-.69-.8-1.03-1.2l.66-1.83,2.16.82c-.11.63-.23,1.26-.35,1.89M880.05,93.67c-.82-.13-1.55-.23-2.15-.29l.56-1.67c.23-.69.98-1.06,1.66-.83.26.09.16,1.25-.07,2.79M886.93,98.5c-.23.69-.98,1.06-1.66.83-.77-.26-.71-1.29-1.49-1.55-.77-.26-1.35.6-2.12.34-.6-.2-.67-.85-1.01-1.25l.56-1.68,4.89,1.64c.69.23,1.04,1.02.83,1.66M887.17,86.22l-2.61,7.52c-.16.33-1.39.3-2.86.14l1.52-4.55c.26-.77,1.33-.7,1.59-1.47.26-.77-.64-1.36-.38-2.13.24-.73,1.32-.66,1.58-1.43.27-.82-.64-1.36-.38-2.13.23-.69.98-1.06,1.66-.83.56.19.17,2.78-.11,4.88M882.17,77.05c-.21.64-1.02,1.04-1.66.83-.69-.23-1.06-.98-.83-1.66.23-.69.97-1.06,1.66-.83.69.23,1.06.97.83,1.66M893.23,79.66l-1.52,4.55c-.26.77-1.32.66-1.59,1.47-.26.77.64,1.36.4,2.09-.26.77-1.33.7-1.59,1.47-.26.77.64,1.36.38,2.13-.23.69-.97,1.06-1.66.83-.56-.19-.17-2.78.12-4.93l2.6-7.48c.17-.37,1.39-.3,2.86-.14M894.32,76.68l-.6,1.66-4.89-1.64c-.71-.29-.66-1.32-1.43-1.58-.82-.27-1.35.6-2.12.34-.69-.23-1.06-.97-.83-1.66.22-.64.98-1.06,1.66-.83.77.26.66,1.32,1.47,1.59.77.26,1.36-.64,2.09-.4.77.26.7,1.33,1.47,1.59.77.26,1.36-.64,2.13-.38.56.19.66.89,1.04,1.31M897.03,80.16l-.56,1.68c-.23.69-.97,1.06-1.66.83-.34-.11-.3-1.39-.16-2.82.92.11,1.73.24,2.38.32M897.86,77.81l-.66,1.83-2.38-.89c.07-.64.17-1.23.22-1.79.66.03,1.16-.61,1.8-.4.56.19.67.85,1.01,1.25M903.63,84.23c-.23.69-1.02,1.04-1.66.83-.69-.23-1.09-1.03-.83-1.66.07-.36,1.06-.31,2.32-.23.13.33.3.67.17,1.06M904.84,80.63c-.19.56-.85.67-1.25,1.01l-4.03-1.35c-.28-.14-.3-1.1-.17-2.35.33-.13.67-.3,1.02-.18.77.26.7,1.33,1.47,1.59.77.26,1.36-.64,2.13-.38.69.23,1.06.98.83,1.66M905.48,84.85c.13-.53-.2-.97-.37-1.46,3.23.46,6.43,1.05.27-1.1.46-.37,1.06-.46,1.26-1.06.53-1.59-.37-3.46-2-4.01-.77-.26-1.35.6-2.12.34-.77-.26-.71-1.29-1.49-1.55-.51-.17-.92.17-1.4.34.42-3.25,1.05-6.43-1.15-.29-.33-.44-.41-1.04-1.01-1.25-.82-.27-1.17.66-2.16.33-.73-.24-.63-1.26-1.4-1.52-.77-.26-1.35.6-2.12.34-.77-.26-.71-1.29-1.49-1.55-.77-.26-1.3.61-2.07.35-.82-.27-.71-1.29-1.49-1.55-1.67-.56-3.49.31-4.05,1.99-.07.21-.1.44-.12.63-.2-.11-.41-.19-.59-.24-1.72-.57-3.51.35-4.07,2.03-.56,1.68.37,3.46,2.04,4.02,1.63.55,3.46-.37,4.01-2,.07-.21.14-.43.16-.62.2.11.37.17.59.24.77.26,1.3-.61,2.12-.34.77.26.71,1.29,1.44,1.53,4.55,1.52.49.4.37.74-1.51,4.51-.39.44-.73.33-1.68-.56-3.46.37-4.03,2.04-.26.77.61,1.3.34,2.12-.26.77-1.28.67-1.53,1.44-.26.77.6,1.35.34,2.12-.26.77-1.29.71-1.55,1.49-1.94,5.79-.43.43-.73.33-1.68-.56-3.51.35-4.07,2.03-1.52,4.55-.39.44-.7.38-1.72-.57-3.49.31-4.05,1.99-.58,1.72.31,3.49,2.03,4.07.51.17.93-.21,1.4-.34-.42,3.25-1.05,6.43,1.14.29.34.4.46,1.06,1.01,1.25.64.21,1.12-.34,1.72-.43-.48,2.7-.68,4.16.8.31.38.42.44,1.1,1.04,1.31.77.26,1.35-.6,2.12-.34.77.26.71,1.29,1.49,1.55,1.67.56,3.46-.37,4.02-2.04.54-1.63-.31-3.49-2-4.01-4.53-1.56-.49-.4-.37-.74,1.52-4.55.39-.44.75-.37,1.66.6,3.46-.37,4.01-2,.26-.77-.6-1.35-.34-2.12.26-.77,1.29-.71,1.55-1.49.26-.77-.61-1.3-.36-2.08.27-.82,1.33-.7,1.55-1.49,1.57-4.54.39-.44.75-.37,1.66.6,3.49-.31,4.05-1.99,1.52-4.55.4-.48.7-.38,4.55,1.52.49.4.37.74-.56,1.68.37,3.46,2.04,4.02,1.67.56,3.49-.31,4.05-1.98M847.65,86.22c-.34.17-.67.3-1.06.17-.69-.23-1.06-.97-.83-1.66.21-.64,1.02-1.04,1.66-.83.34.11.3,1.1.23,2.32M851.96,87.18c-.63.03-1.12.63-1.76.41-.6-.2-.69-.8-1.03-1.2l.62-1.85,2.42.91c-.06.6-.24,1.73-.24,1.73M852.34,84.34c-.87-.1-1.73-.24-2.38-.32l.6-1.66c.23-.69.97-1.06,1.66-.83.34.11.31,1.35.11,2.8M859.07,89.18c-.27.67-1.02,1.04-1.7.81-.77-.26-.67-1.28-1.45-1.53-.81-.27-1.35.6-2.12.34-.6-.2-.67-.84-1.06-1.26l.6-1.66,4.85,1.62c.69.23,1.09,1.03.87,1.68M859.27,76.88l-2.61,7.53c-.11.34-1.39.3-2.86.14l1.57-4.54c.26-.77,1.29-.71,1.55-1.49.26-.77-.6-1.35-.34-2.12.24-.73,1.28-.67,1.53-1.44.27-.82-.6-1.35-.34-2.12.23-.69.97-1.06,1.66-.83.52.17.17,2.78-.15,4.87M865.38,70.33l-1.52,4.55c-.3.76-1.32.66-1.59,1.47-.26.77.61,1.3.35,2.07-.26.77-1.29.71-1.55,1.49-.26.77.6,1.35.34,2.12-.23.69-.98,1.06-1.66.83-.51-.17-.17-2.78.16-4.91l2.6-7.48c.13-.39,1.39-.3,2.86-.14M866.47,67.36l-.6,1.66-4.89-1.64c-.67-.27-1.04-1.02-.81-1.7.21-.64.98-1.06,1.66-.83.77.26.66,1.32,1.47,1.59.77.26,1.36-.64,2.09-.4.6.2.7.9,1.09,1.32M869.17,70.84l-.56,1.67c-.23.69-1.02,1.04-1.66.83-.38-.13-.3-1.39-.15-2.82.87.1,1.73.25,2.37.32M869.96,68.48l-.62,1.85-2.42-.9c.11-.63.17-1.23.26-1.77.62.01,1.16-.61,1.8-.4.56.18.63.83.97,1.23M873.38,70.1c-.23.69-.99,1.1-1.66.83-.31-.06-.31-1.06-.18-2.3.33-.13.63-.31,1.02-.18.69.23,1.04,1.02.83,1.66M875.18,70.7c.56-1.68-.41-3.48-2.04-4.03-.52-.17-.96.16-1.45.33.46-3.24,1.09-6.41-1.1-.27-.37-.46-.41-1.05-1.01-1.25-.77-.26-1.26.63-2.12.34-.77-.26-.71-1.29-1.49-1.55-.77-.26-1.31.61-2.08.36-.82-.27-.71-1.29-1.49-1.55-1.68-.56-3.49.31-4.05,1.99-.57,1.72.35,3.51,2.03,4.07,4.55,1.52.44.39.37.75-1.55,4.49-.43.43-.73.33-1.67-.56-3.51.36-4.07,2.03-.26.77.66,1.32.38,2.13-.26.77-1.33.7-1.58,1.43-.26.77.64,1.36.38,2.13-.26.77-1.33.7-1.59,1.47-1.51,4.51-.39.44-.69.34-1.72-.57-3.51.36-4.07,2.03-1.52,4.55-.39.44-.74.37-1.66-.6-3.46.37-4.01,2-.56,1.67.31,3.49,1.99,4.05.51.17.97-.2,1.45-.33-.46,3.23-1.05,6.43,1.1.27.39.42.46,1.06,1.06,1.26.73.24,1.26-.63,2.08-.36.86.29.71,1.29,1.49,1.55.77.26,1.3-.61,2.12-.34.77.26.71,1.29,1.44,1.53,1.67.56,3.51-.35,4.07-2.03.56-1.67-.35-3.51-2.04-4.02-4.49-1.55-.44-.39-.33-.73,1.52-4.55.39-.44.7-.38,1.7.62,3.49-.31,4.05-1.99.26-.77-.6-1.35-.34-2.12.26-.77,1.29-.71,1.55-1.49.24-.73-.61-1.3-.35-2.07.27-.82,1.29-.71,1.55-1.49,1.52-4.55.39-.44.74-.37,1.66.6,3.49-.31,4.01-2,1.56-4.53.44-.47.74-.37,1.67.56,3.51-.35,4.07-2.03M808.9,73.25c-.34.17-.67.3-1.06.17-.69-.23-1.06-.98-.83-1.66.21-.64,1.02-1.04,1.66-.83.34.11.3,1.1.23,2.32M820.31,76.21c-.27.67-1.02,1.04-1.7.81-.77-.26-.67-1.27-1.44-1.53-.81-.27-1.35.6-2.12.34-.77-.26-.67-1.28-1.49-1.55-.77-.26-1.3.61-2.07.35-.6-.2-.69-.8-1.03-1.2l.62-1.85,8.37,2.94c.69.23,1.09,1.03.87,1.68M814.35,71.49c-1.15-.14-2.27-.33-3.11-.42l.6-1.66c.26-.77,1.27-.67,1.55-1.49.26-.77-.61-1.3-.36-2.08.23-.69.98-1.06,1.66-.83.64.21-.12,4.35-.35,6.47M821.71,60.35l-2.61,7.52c-.24.73-1.28.67-1.53,1.44-.27.82.6,1.35.34,2.12-.13.39-1.43.28-2.95.11l2.86-8.11c.24-.73,1.28-.67,1.53-1.44.27-.82-.58-1.39-.34-2.12.2-.6.89-.66,1.3-1.04l1.53.56-.13.96ZM825.51,60.67l-1.61,4.81c-.27.67-1.03,1.09-1.7.81-.53-.13-.18-2.73.15-4.87l.6-1.66,2.56.91ZM822.01,58.31l-1.4-.23c-.03-.63-.63-1.12-.41-1.76.23-.69.98-1.06,1.66-.83.34.11.31,1.35.15,2.82M834.61,80.99c-.23.69-.97,1.06-1.66.83-.77-.26-.71-1.29-1.49-1.55-.77-.26-1.35.6-2.12.34-.69-.23-1.06-.97-.83-1.66.24-.73,1.32-.66,1.58-1.43.27-.81-.64-1.36-.38-2.13.16-.47,3.55-.2,5.27.38.6.2,1.06.97.83,1.66-.26.77-1.32.66-1.59,1.47-.26.77.64,1.36.4,2.09M833.47,72.69c-.2.46-3.59.18-5.27-.38-.69-.23-1.06-.97-.83-1.66.26-.77,1.29-.71,1.55-1.49.26-.77-.6-1.35-.34-2.12.16-.47,3.55-.2,5.22.36.69.23,1.06.97.83,1.66-.26.77-1.29.71-1.55,1.49-.26.77.64,1.36.38,2.13M832.26,64.31c-.16.47-3.34.27-5.22-.36-.43-.14-.31-1.35-.16-2.82l.99.33c.73.24.67,1.27,1.45,1.53.81.27,1.35-.6,2.12-.34.69.23,1.06.98.83,1.66M829.19,50.26l-2.86,8.11c-.16.33-1.39.3-2.85.1l1.52-4.55c.24-.73,1.32-.66,1.58-1.43.27-.81-.64-1.36-.38-2.13.13-.39,1.43-.28,2.99-.1M832.85,50.72l-.56,1.67c-.26.77-1.32.66-1.59,1.47-.26.77.64,1.36.4,2.09-.23.69-1.03,1.09-1.66.83-.69-.23.08-4.37.35-6.47,1.1.13,2.23.32,3.06.41M833.64,48.36l-.62,1.85-8.37-2.94c-.69-.23-1.04-1.02-.83-1.66.23-.69.97-1.06,1.66-.83.77.26.67,1.28,1.49,1.55.77.26,1.3-.61,2.07-.36.77.26.71,1.29,1.49,1.55.77.26,1.35-.6,2.12-.34.56.19.64.79.99,1.19M837.06,61.96c-.23.69-.98,1.06-1.66.83-.64-.21-1.04-1.02-.83-1.66.23-.69.97-1.06,1.66-.83s1.06.97.83,1.66M841.87,59.56c-.23.69-.97,1.06-1.66.83-.69-.23-1.06-.97-.83-1.66s.98-1.06,1.66-.83c.64.22,1.04,1.02.83,1.66M837.09,50.04c-.21.64-.98,1.06-1.66.83-.3-.1-.3-1.1-.18-2.3.34-.17.63-.31,1.02-.18.69.23,1.06.98.83,1.66M846.63,57.19c-.23.69-.97,1.06-1.66.83-.69-.23-1.06-.97-.83-1.66s.97-1.06,1.66-.83c.69.23,1.06.98.83,1.66M851.43,54.83c-.23.69-.97,1.06-1.66.83-.64-.21-1.04-1.02-.83-1.66.23-.69.97-1.06,1.66-.83s1.06.97.83,1.66M853.23,55.44c.57-1.72-.35-3.51-2.03-4.07-1.67-.56-3.46.37-4.02,2.04-.07.21-.13.39-.16.62-.2-.11-.36-.21-.57-.29-1.67-.56-3.51.35-4.07,2.03-.07.21-.09.4-.11.63-.2-.11-.37-.17-.59-.24-1.68-.56-3.49.31-4.05,1.99-.07.21-.14.43-.16.61-.16-.1-.37-.17-.59-.24-1.67-.56-3.46.37-4.02,2.04-.07.21-.13.39-.16.62-.2-.11-.36-.21-.57-.29-.77-.26-1.32.66-2.13.38-.77-.26-.7-1.33-1.43-1.58-.6-.2-1.03-.34-1.33-.44l.04-.27c.41.04.87.1.9.01,1.52-4.55.4-.49.74-.37,1.68.56,3.42-.24,4.03-2.04.26-.77-.61-1.3-.36-2.08.27-.82,1.33-.7,1.55-1.49,1.57-4.54.39-.44.75-.37,1.67.56,3.49-.31,4.05-1.99.57-1.72-.35-3.51-2.03-4.07-.51-.17-.97.2-1.45.33.46-3.23,1.09-6.41-1.1-.27-.39-.42-.46-1.06-1.02-1.25-.77-.26-1.35.6-2.12.34-.77-.26-.71-1.29-1.49-1.55-.73-.24-1.3.61-2.07.36-.82-.27-.71-1.29-1.49-1.55-1.67-.56-3.51.35-4.07,2.03-.56,1.67.35,3.51,2.04,4.02,4.53,1.56.43.43.37.74-.26.77.61,1.3.34,2.12-.26.77-1.33.7-1.53,1.44-1.57,4.54-.4.49-.75.37-1.67-.56-3.49.31-4.07,2.03-.24.73.66,1.32.4,2.09-.29.86-1.33.7-1.59,1.47-.26.77.66,1.32.38,2.13-.26.77-1.33.7-1.58,1.43-1.52,4.55-.4.48-.7.38-1.72-.57-3.49.31-4.07,2.03-.24.73.61,1.3.35,2.07-.27.82-1.29.71-1.55,1.49-1.52,4.55-.39.44-.74.37-1.66-.6-3.46.37-4.01,2-.56,1.68.31,3.49,1.98,4.05.52.17.97-.2,1.45-.33-.46,3.23-1.05,6.42,1.1.27.38.42.46,1.06,1.06,1.26.73.24,1.3-.61,2.08-.36.82.27.76,1.3,1.49,1.55.77.26,1.3-.61,2.12-.34.77.26.71,1.29,1.44,1.53,1.72.57,3.51-.36,4.07-2.03.56-1.68-.35-3.51-2.04-4.02-4.49-1.55-.43-.43-.33-.73.26-.77-.66-1.32-.38-2.13.26-.77,1.33-.7,1.58-1.43,1.52-4.55.4-.49.7-.38,1.72.57,3.49-.31,4.07-2.03.18-.56.34-1.03.44-1.33l.26.09c-.04.42-.1.87.03.92,4.55,1.52.44.39.34.69-.26.77.64,1.36.38,2.13-.26.77-1.33.7-1.59,1.47-.56,1.67.35,3.51,2.04,4.02,4.53,1.56.43.43.37.74-.26.77.61,1.3.34,2.12-.26.77-1.28.67-1.53,1.44-.56,1.68.31,3.49,1.99,4.05.77.26,1.35-.6,2.12-.34.77.26.71,1.29,1.49,1.55,1.68.56,3.46-.37,4.02-2.04.26-.77-.61-1.3-.35-2.07.27-.82,1.29-.71,1.55-1.49.56-1.68-.31-3.49-1.99-4.05-4.55-1.52-.48-.4-.38-.7.26-.77-.6-1.35-.34-2.12.26-.77,1.29-.71,1.55-1.49.56-1.68-.37-3.46-2.04-4.02-4.51-1.51-.43-.43-.33-.73.07-.21.09-.4.12-.63.2.11.37.17.59.24,1.67.56,3.49-.31,4.05-1.99.07-.21.14-.43.16-.62.16.1.37.17.59.24,1.68.56,3.46-.37,4.02-2.04.07-.21.13-.39.16-.62.2.11.36.21.57.29,1.68.56,3.51-.35,4.07-2.03.07-.21.09-.4.12-.63.2.11.37.17.58.24,1.68.56,3.49-.31,4.05-1.99"/></g></svg>